<?xml version="1.0" encoding="utf-8"?><svg version="1.1" id="Layer_1" xmlns="http://www.w3.org/2000/svg" xmlns:xlink="http://www.w3.org/1999/xlink" x="0px" y="0px" viewBox="0 0 122.88 91.56" style="enable-background:new 0 0 122.88 91.56" xml:space="preserve"><style type="text/css">.st0{fill-rule:evenodd;clip-rule:evenodd;}</style><g><path class="st0" d="M2.72,0h94.61c1.5,0,2.72,1.22,2.72,2.72v16.44h-5.77V8.11c0-1.32-1.08-2.4-2.41-2.4H8.18v0 c-1.32,0-2.4,1.08-2.4,2.4v46.25c0,1.32,1.08,2.4,2.4,2.4h60.2v11.35H2.72C1.22,68.11,0,66.89,0,65.4V2.72C0,1.22,1.22,0,2.72,0 L2.72,0L2.72,0L2.72,0z M93,25.49c0.28-0.25,0.68-0.42,1.07-0.42c0.08,0,0.17,0,0.25,0.03h25c0.96,0,1.86,0.39,2.51,1.04 c0.65,0.65,1.04,1.52,1.04,2.51v43.08h-3.16V28.65c0-0.11-0.03-0.2-0.11-0.25c-0.06-0.06-0.14-0.11-0.25-0.11H95.68v13.9 c0,1.32-0.54,2.54-1.41,3.41C93.4,46.46,92.18,47,90.86,47H77.22v41.01c0,0.08,0.03,0.2,0.11,0.25c0.06,0.06,0.14,0.11,0.25,0.11 h41.77c0.08,0,0.2-0.03,0.25-0.11c0.06-0.06,0.11-0.17,0.11-0.25V71.66h3.16v16.35c0,0.99-0.39,1.86-1.04,2.51 c-0.65,0.65-1.52,1.04-2.51,1.04h-41.8c-0.99,0-1.86-0.39-2.51-1.04c-0.65-0.65-1.04-1.52-1.04-2.51V45.79 c-0.03-0.14-0.06-0.25-0.06-0.39c0-0.48,0.23-0.9,0.54-1.21L92.8,25.61c0.06-0.06,0.08-0.08,0.14-0.11L93,25.49L93,25.49L93,25.49z M92.49,42.18V30.54L79.39,43.81h11.47c0.45,0,0.85-0.2,1.16-0.48C92.3,43.05,92.49,42.63,92.49,42.18L92.49,42.18L92.49,42.18z M40.19,29.61L57,26.26l-3.39,5.03c5.44,5.57,11.41,7.5,18.44,5.25c-7.33,9.45-17.31,9.66-25.21,4.79l-3.46,5.13L40.19,29.61 L40.19,29.61L40.19,29.61L40.19,29.61z M62.36,71.87c0.07,4.27,1.82,8.09,6.59,11.1H31.1c3.81-2.77,6.6-6.12,6.59-11.1H62.36 L62.36,71.87z M50.02,58.95c1.93,0,3.49,1.56,3.49,3.49c0,1.93-1.57,3.49-3.49,3.49c-1.93,0-3.49-1.56-3.49-3.49 C46.53,60.52,48.1,58.95,50.02,58.95L50.02,58.95z"/></g></svg>